<?xml version="1.0" standalone="no"?>
<!DOCTYPE svg PUBLIC "-//W3C//DTD SVG 20010904//EN"
 "http://www.w3.org/TR/2001/REC-SVG-20010904/DTD/svg10.dtd">
<svg version="1.0" xmlns="http://www.w3.org/2000/svg"
 width="512.000000pt" height="512.000000pt" viewBox="0 0 512.000000 512.000000"
 preserveAspectRatio="xMidYMid meet">
<metadata>
Created by potrace 1.14, written by Peter Selinger 2001-2017
</metadata>
<g transform="translate(0.000000,512.000000) scale(0.100000,-0.100000)"
fill="#000000" stroke="none">
<path d="M1035 4882 c-3 -8 -10 -10 -17 -5 -16 10 -58 11 -58 2 0 -4 -11 -6
-25 -4 -14 1 -25 -2 -25 -7 0 -6 -7 -8 -15 -4 -8 3 -15 1 -15 -5 0 -6 -6 -9
-13 -6 -7 3 -29 -2 -48 -11 -18 -8 -37 -14 -41 -14 -5 1 -8 -2 -8 -8 0 -5 -8
-10 -18 -10 -24 0 -82 -29 -82 -41 0 -5 -7 -9 -15 -9 -8 0 -23 -8 -33 -17 -51
-49 -88 -78 -97 -75 -5 2 -7 0 -3 -3 4 -4 -9 -23 -30 -42 -20 -19 -30 -31 -22
-27 13 7 13 5 1 -9 -7 -9 -17 -15 -20 -12 -4 2 -20 -25 -36 -60 -17 -39 -32
-62 -39 -58 -6 3 -8 3 -4 -2 4 -4 2 -17 -5 -29 -6 -11 -13 -25 -13 -31 -1 -5
-3 -12 -4 -15 -5 -13 -20 -81 -26 -120 -3 -19 -8 -38 -11 -42 -2 -5 1 -8 8 -8
8 0 8 -4 1 -13 -7 -8 -7 -18 -2 -27 5 -8 6 -19 2 -25 -10 -15 -9 -65 1 -65 4
0 5 -6 0 -12 -10 -18 -11 -68 0 -68 4 0 5 -6 0 -12 -11 -18 -11 -68 0 -68 6 0
6 -5 0 -12 -5 -7 -8 -38 -6 -68 4 -73 4 -71 0 -100 -2 -14 1 -31 6 -37 6 -8 6
-13 0 -13 -10 0 -10 -60 1 -78 4 -7 3 -12 -1 -12 -10 0 -10 -61 1 -78 4 -7 3
-12 -1 -12 -10 0 -10 -61 1 -78 4 -7 4 -12 -1 -12 -4 0 -8 -29 -8 -65 0 -36 4
-65 8 -65 5 0 5 -6 0 -12 -10 -17 -10 -37 -1 -64 4 -12 4 -25 0 -28 -10 -10
-9 -66 1 -66 4 0 5 -6 0 -12 -10 -18 -11 -68 0 -68 4 0 5 -6 0 -12 -11 -18
-11 -68 0 -68 6 0 6 -5 0 -12 -5 -7 -8 -38 -6 -68 1 -30 3 -61 3 -67 0 -7 0
-26 0 -43 0 -16 0 -37 0 -45 0 -8 0 -28 0 -45 0 -16 0 -37 0 -45 0 -8 0 -42 0
-75 0 -33 0 -67 0 -75 0 -8 0 -28 0 -45 0 -16 0 -36 0 -42 0 -7 -1 -34 -2 -60
-2 -27 1 -48 6 -48 4 0 4 -6 -2 -13 -7 -8 -7 -18 -2 -27 5 -8 6 -19 2 -25 -10
-15 -9 -65 1 -65 4 0 5 -6 0 -12 -10 -18 -11 -68 0 -68 4 0 5 -6 0 -12 -11
-18 -11 -68 0 -68 6 0 6 -5 0 -12 -5 -7 -8 -38 -6 -68 4 -73 4 -71 0 -100 -2
-14 1 -31 6 -38 6 -7 6 -12 0 -12 -10 0 -10 -60 1 -78 4 -7 3 -12 -1 -12 -10
0 -10 -61 1 -78 4 -7 3 -12 -1 -12 -10 0 -10 -61 1 -78 4 -7 4 -12 -1 -12 -4
0 -8 -29 -8 -65 0 -36 4 -65 8 -65 5 0 5 -6 0 -13 -10 -16 -10 -36 -1 -63 4
-12 4 -25 0 -28 -10 -10 -9 -66 1 -66 4 0 5 -6 0 -12 -10 -18 -11 -68 0 -68 4
0 5 -6 0 -12 -11 -18 -11 -68 0 -68 6 0 6 -5 0 -13 -8 -10 -9 -81 -2 -132 1
-5 0 -14 -1 -20 -5 -17 12 -65 23 -65 8 0 8 -3 0 -11 -12 -12 4 -69 20 -69 4
0 5 -4 2 -10 -3 -5 -2 -10 3 -10 5 0 9 -6 10 -12 3 -33 10 -50 23 -58 8 -5 15
-14 15 -20 1 -5 2 -14 3 -18 1 -9 28 -46 53 -73 10 -11 18 -23 18 -29 0 -5 6
-10 13 -10 6 -1 21 -15 33 -33 11 -18 27 -31 35 -29 8 2 11 1 7 -3 -10 -10 17
-35 37 -35 9 0 14 -4 11 -9 -3 -4 6 -13 20 -20 14 -6 22 -16 19 -21 -3 -6 1
-7 9 -4 9 3 16 1 16 -5 0 -6 3 -11 8 -10 15 2 52 -14 52 -23 0 -5 4 -7 9 -3 5
3 13 0 16 -6 4 -5 13 -8 20 -5 8 3 15 0 17 -6 4 -11 25 -18 61 -21 9 -1 17 -5
17 -10 0 -5 8 -3 17 4 11 10 14 10 9 2 -9 -16 -17 -15 132 -17 79 -1 122 2
122 9 0 6 3 7 8 0 10 -14 225 -14 234 -1 5 7 8 7 8 1 0 -6 42 -10 104 -10 64
-1 102 3 99 9 -4 5 -1 6 8 1 20 -13 160 -14 152 -2 -4 6 -1 7 8 1 20 -12 339
-12 339 1 0 7 3 7 8 0 10 -14 225 -14 234 -1 5 7 8 7 8 1 0 -6 42 -10 104 -10
64 -1 102 3 99 9 -4 5 -1 6 8 1 20 -13 160 -14 152 -2 -4 6 -1 7 8 1 20 -12
339 -12 339 1 0 7 3 7 8 0 10 -14 225 -14 234 -1 5 7 8 7 8 1 0 -6 42 -10 104
-10 64 -1 102 3 99 9 -4 5 -1 6 8 1 20 -13 160 -14 152 -2 -4 6 -1 7 8 1 20
-12 332 -12 341 1 5 6 8 6 8 0 0 -6 26 -9 63 -8 94 4 107 6 107 16 0 5 9 7 20
4 11 -3 26 0 33 7 7 7 18 11 25 8 6 -2 12 1 12 7 0 6 3 10 8 9 4 -1 17 3 28
10 12 6 24 8 28 5 3 -3 6 -1 6 5 0 7 7 12 15 12 8 0 15 5 15 11 0 5 4 8 9 4 6
-3 24 8 40 24 17 17 31 27 31 23 0 -4 5 1 11 11 6 9 14 15 20 12 5 -4 9 1 9 9
0 9 14 22 30 31 17 9 30 22 30 31 0 8 5 12 10 9 6 -3 10 -1 10 5 0 6 12 22 26
35 15 14 23 25 18 25 -5 0 2 7 14 16 13 9 21 22 18 30 -3 8 -1 14 4 14 12 0
50 78 50 102 0 10 5 18 11 18 5 0 7 5 4 10 -3 6 1 13 10 16 11 4 12 10 6 18
-7 9 -6 19 4 33 8 11 12 23 9 25 -2 3 0 17 5 32 8 19 7 26 -2 26 -8 0 -7 3 2
9 12 8 14 248 14 1665 0 1292 -2 1658 -12 1670 -7 8 -12 33 -13 55 0 23 -4 41
-9 41 -4 0 -6 9 -4 20 2 11 0 20 -5 20 -5 0 -7 7 -4 15 4 8 1 15 -6 15 -7 0
-10 7 -6 15 3 8 2 15 -2 15 -4 0 -17 22 -30 50 -12 27 -32 56 -42 63 -11 8
-17 16 -14 20 3 3 -3 12 -15 19 -12 7 -21 18 -21 25 0 6 -14 23 -30 37 -17 14
-31 29 -32 33 -1 4 -8 14 -15 21 -11 11 -13 11 -14 0 0 -7 -4 -3 -9 10 -5 12
-16 22 -25 22 -8 0 -15 5 -15 10 0 6 -6 10 -13 10 -7 0 -22 8 -33 18 -25 22
-84 55 -84 47 0 -4 -7 1 -16 9 -8 9 -20 14 -25 11 -5 -4 -9 -1 -9 5 0 6 -6 10
-12 9 -19 -3 -100 21 -117 34 -12 10 -13 9 -6 -2 6 -10 4 -12 -6 -5 -8 4 -32
9 -54 10 -22 1 -40 3 -40 4 0 1 -683 3 -1517 4 -1245 1 -1519 -1 -1523 -12z"/>
</g>
</svg>
