<?xml version="1.0" standalone="no"?>
<!DOCTYPE svg PUBLIC "-//W3C//DTD SVG 20010904//EN"
 "http://www.w3.org/TR/2001/REC-SVG-20010904/DTD/svg10.dtd">
<svg version="1.0" xmlns="http://www.w3.org/2000/svg"
 width="500.000000pt" height="500.000000pt" viewBox="0 0 500.000000 500.000000"
 preserveAspectRatio="xMidYMid meet">
<metadata>
Created by potrace 1.14, written by Peter Selinger 2001-2017
</metadata>
<g transform="translate(0.000000,500.000000) scale(0.100000,-0.100000)"
fill="#000000" stroke="none">
<path d="M995 4773 c-72 -9 -183 -37 -217 -54 -21 -11 -43 -19 -51 -19 -27 0
-144 -86 -217 -159 -91 -91 -153 -199 -181 -315 -18 -78 -19 -135 -19 -1735 0
-1183 3 -1665 11 -1690 26 -83 54 -150 90 -211 40 -68 163 -210 183 -210 6 0
22 -12 35 -25 13 -14 27 -25 32 -25 5 0 9 366 9 873 0 515 4 917 10 982 35
373 245 683 575 847 81 40 172 73 232 83 36 6 48 15 84 63 171 228 393 374
674 444 130 32 370 32 500 0 221 -55 386 -145 543 -296 41 -39 96 -101 123
-138 44 -59 54 -67 92 -73 150 -25 347 -129 481 -255 191 -179 302 -411 326
-680 6 -66 10 -485 10 -982 0 -485 4 -868 9 -868 12 0 107 77 158 127 51 50
124 155 142 203 7 19 19 49 26 65 8 17 21 64 30 105 14 67 15 247 12 1685 -2
1471 -4 1616 -20 1684 -25 112 -76 211 -142 282 -8 9 -15 19 -15 24 0 14 -108
110 -167 146 -72 46 -128 71 -218 101 l-70 23 -1520 1 c-836 1 -1533 0 -1550
-3z"/>
<path d="M1960 3034 c-120 -32 -237 -133 -294 -254 -30 -64 -31 -68 -34 -241
-3 -139 0 -190 12 -240 41 -160 165 -280 331 -324 87 -22 953 -22 1040 0 167
44 290 164 331 325 13 51 15 100 12 239 -3 172 -4 178 -34 241 -58 123 -175
223 -299 255 -85 22 -982 21 -1065 -1z m600 -235 c78 -17 140 -80 140 -144 0
-21 -5 -25 -30 -25 -26 0 -32 6 -46 40 -10 25 -28 47 -45 55 -57 30 -167 11
-183 -30 -25 -65 13 -110 121 -145 84 -28 145 -62 166 -93 46 -71 24 -161 -51
-204 -38 -22 -58 -27 -116 -28 -113 0 -191 48 -215 133 l-10 32 40 0 c28 0 39
-4 39 -15 0 -29 54 -76 98 -86 54 -12 121 3 145 32 23 28 22 84 -2 108 -10 10
-45 28 -77 40 -33 12 -78 29 -102 37 -56 21 -109 74 -118 118 -14 76 39 149
123 172 61 16 62 16 123 3z"/>
<path d="M1874 1488 c-40 -49 -56 -94 -56 -167 -1 -181 123 -288 403 -348 119
-25 429 -25 548 0 213 46 322 110 376 222 46 94 34 218 -27 289 l-33 38 -95
-46 c-316 -151 -673 -152 -988 -1 -52 25 -95 45 -97 45 -2 0 -16 -15 -31 -32z"/>
</g>
</svg>
