# Vectary OBJ Export units=mm
mtllib Asteroid1.mtl
o 000_Sphere_-_baked
g Sphere_-_baked
usemtl Material_7c5ede22-71ec-49cd-8c3d-476150ae596c
v 14.739 45.413 40.188
v 20.455 42.453 5.545
v 32.671 39.692 16.195
v 2.692 47.297 9.939
v -8.664 55.239 17.994
v -9.248 61.200 15.506
v -3.987 64.803 22.890
v -11.883 60.980 44.561
v -14.148 54.247 65.005
v -2.826 48.607 56.950
v 17.730 42.122 34.599
v 23.978 49.251 -12.421
v 46.156 44.059 17.800
v 7.204 60.871 -18.354
v -14.896 70.681 -11.263
v -33.097 65.832 -18.102
v -22.634 58.625 12.162
v -39.519 61.857 37.163
v -14.248 62.492 78.158
v 8.159 59.416 71.067
v 17.911 54.590 42.844
v 36.095 66.070 -19.306
v 52.664 62.297 27.695
v 27.391 76.952 -38.933
v -2.769 72.158 -39.418
v -41.975 77.609 -6.782
v -40.322 57.348 42.821
v -38.760 73.254 69.284
v 3.617 71.252 83.660
v 33.863 66.544 84.145
v 44.433 77.131 56.760
v 31.644 88.493 -22.773
v 57.128 85.740 37.137
v 26.761 87.446 -54.527
v -3.605 74.679 -53.547
v -49.924 89.071 0.816
v -53.776 66.196 44.347
v -33.855 87.479 90.237
v -14.943 82.366 91.139
v 14.729 80.556 90.159
v 48.858 94.716 66.648
v 30.952 108.348 -22.836
v 57.295 104.483 31.944
v 12.389 99.915 -47.491
v -19.075 86.653 -51.791
v -63.977 101.997 -23.099
v -59.739 78.234 22.135
v -48.258 101.282 70.923
v -31.142 94.572 100.341
v 6.846 98.661 104.641
v 41.182 110.321 71.187
v 28.242 123.073 -20.981
v 55.305 115.762 17.159
v 6.422 116.926 -31.919
v -28.901 103.419 -39.730
v -64.519 115.550 -29.629
v -59.338 90.656 14.337
v -54.201 116.269 59.792
v -25.718 104.036 104.956
v 17.137 118.497 112.767
v 47.730 125.576 68.440
v 29.759 131.315 -0.507
v 45.976 123.910 24.728
v 0.894 133.950 -17.916
v -31.710 126.055 -25.216
v -56.853 128.552 -6.522
v -53.796 103.192 28.093
v -42.149 131.440 69.544
v -12.167 110.828 97.862
v 18.968 139.118 105.161
v 38.336 133.627 75.559
v 21.836 139.480 15.940
v 24.936 135.671 40.284
v 3.331 149.399 4.428
v -25.414 146.546 -7.557
v -44.236 136.227 9.209
v -39.498 118.051 40.180
v -28.202 140.588 64.475
v -11.890 125.204 81.864
v 6.083 148.404 93.849
v 21.263 142.395 71.206
v 3.562 148.152 30.930
v 5.126 144.890 44.371
v -3.094 152.765 21.012
v -15.322 150.932 11.547
v -24.461 144.440 14.171
v -22.634 140.336 28.583
v -15.772 146.868 43.225
v -9.243 147.823 58.558
v -1.801 150.499 68.023
v 3.612 148.155 59.985
v -9.860 159.040 36.632
vn -0.41916 -0.90398 -0.08443
vn -0.16587 -0.97333 -0.15850
vn -0.25384 -0.96639 0.04070
vn -0.41916 -0.90398 -0.08443
vn -0.38465 -0.90831 -0.16436
vn -0.16587 -0.97333 -0.15850
vn -0.41916 -0.90398 -0.08443
vn -0.49755 -0.86236 -0.09370
vn -0.37285 -0.92549 -0.06680
vn -0.70466 0.03713 0.70857
vn -0.74556 0.02566 0.66594
vn -0.60694 0.25476 0.75281
vn -0.70466 0.03713 0.70857
vn -0.79131 -0.08529 0.60544
vn -0.83169 0.01605 0.55500
vn -0.47389 -0.86339 -0.17316
vn -0.34013 -0.88019 -0.33101
vn -0.51646 -0.79112 -0.32771
vn -0.47389 -0.86339 -0.17316
vn -0.39903 -0.80481 -0.43939
vn -0.34013 -0.88019 -0.33101
vn -0.57406 -0.70226 -0.42105
vn -0.65537 -0.45999 -0.59908
vn -0.59991 -0.64962 -0.46702
vn -0.58672 0.52034 -0.62049
vn -0.58672 0.52034 -0.62049
vn -0.48072 0.61851 -0.62158
vn -0.58672 0.52034 -0.62049
vn -0.68017 0.41171 -0.60653
vn -0.58672 0.52034 -0.62049
vn 0.06397 -0.89612 -0.43917
vn 0.05833 -0.91069 -0.40895
vn 0.26237 -0.86012 -0.43744
vn 0.31485 -0.76651 -0.55977
vn -0.45793 -0.86230 -0.21622
vn -0.40236 -0.75099 -0.52356
vn -0.17831 -0.89974 -0.39833
vn -0.07362 -0.96640 -0.24629
vn -0.59107 -0.71718 -0.36917
vn -0.47924 -0.66886 -0.56830
vn -0.52154 -0.69253 -0.49840
vn -0.48499 -0.76718 -0.41979
vn -0.87798 -0.06067 0.47484
vn 0.36830 -0.90075 -0.23024
vn -0.97919 -0.01128 0.20262
vn -0.97919 -0.01128 0.20262
vn -0.79131 -0.08529 0.60544
vn 0.40994 -0.88989 -0.20010
vn -0.81528 0.00379 0.57906
vn -0.83169 0.01605 0.55500
vn 0.11470 -0.98956 -0.08731
vn -0.16858 -0.98517 0.03179
vn 0.26068 -0.95972 -0.10480
vn 0.40994 -0.88989 -0.20010
vn -0.24286 -0.91307 -0.32762
vn -0.40562 -0.80737 0.42852
vn -0.00254 -0.99412 -0.10827
vn -0.14837 -0.96969 -0.19412
vn 0.08920 -0.84535 0.52672
vn 0.09771 -0.84172 0.53100
vn -0.21424 -0.81964 0.53132
vn -0.36538 -0.78995 0.49243
vn 0.48074 -0.67058 0.56499
vn 0.80862 -0.33265 0.48527
vn 0.09771 -0.84172 0.53100
vn 0.08920 -0.84535 0.52672
vn 0.45909 -0.64256 0.61348
vn 0.42018 -0.70540 0.57083
vn 0.56411 -0.58902 0.57865
vn 0.66102 -0.54628 0.51442
vn 0.80833 0.03054 -0.58794
vn 0.68834 -0.57567 -0.44134
vn 0.88622 -0.00793 -0.46319
vn 0.80833 0.03054 -0.58794
vn -0.09211 -0.61228 -0.78526
vn 0.14939 -0.92081 -0.36027
vn 0.09519 -0.66473 -0.74099
vn 0.04272 -0.40471 -0.91345
vn -0.47924 -0.66886 -0.56830
vn 0.13215 -0.98877 -0.06980
vn -0.15428 -0.68262 -0.71430
vn -0.43567 -0.66859 -0.60264
vn 0.36830 -0.90075 -0.23024
vn -0.70128 0.07909 -0.70848
vn 0.13215 -0.98877 -0.06980
vn 0.25964 -0.96022 -0.10277
vn -0.63999 -0.76064 -0.10884
vn -0.64714 -0.69520 -0.31291
vn -0.62321 -0.76918 -0.14134
vn -0.74544 -0.65891 0.10078
vn 0.76862 0.44261 0.46187
vn 0.98946 -0.14226 0.02711
vn 0.76862 0.44261 0.46187
vn 0.76862 0.44261 0.46187
vn -0.29337 -0.82924 0.47570
vn -0.31842 0.05503 0.94635
vn -0.45217 -0.74982 0.48302
vn -0.40582 -0.87053 0.27835
vn 0.09771 -0.84172 0.53100
vn -0.01731 -0.75545 0.65498
vn -0.12145 -0.74723 0.65337
vn 0.04940 -0.79486 0.60478
vn 0.34958 -0.86761 0.35361
vn 0.74618 -0.59559 0.29748
vn 0.17735 -0.88975 0.42059
vn 0.09771 -0.84172 0.53100
vn 0.42018 -0.70540 0.57083
vn 0.80211 -0.42364 0.42090
vn 0.62172 -0.55814 0.54950
vn 0.34539 -0.77610 0.52762
vn 0.92595 -0.11403 -0.36001
vn 0.95072 0.00696 -0.30998
vn 0.92787 -0.01307 -0.37268
vn 0.87144 -0.23572 -0.43014
vn 0.96942 -0.01427 -0.24497
vn 0.98680 -0.06180 -0.14972
vn 0.95072 0.00696 -0.30998
vn 0.93258 0.07025 -0.35406
vn 0.08787 -0.94682 -0.30952
vn 0.06008 -0.98206 -0.17875
vn 0.26841 -0.88784 -0.37375
vn -0.05180 -0.75170 -0.65747
vn -0.52088 -0.84411 -0.12716
vn -0.76668 -0.47922 -0.42726
vn -0.17644 -0.95426 -0.24136
vn 0.13637 -0.97635 -0.16778
vn -0.64714 -0.69520 -0.31291
vn -0.21804 -0.85809 -0.46491
vn -0.68023 -0.63299 -0.36961
vn -0.77696 -0.57138 -0.26430
vn -0.45217 -0.74982 0.48302
vn -0.51909 -0.65908 0.54421
vn -0.53475 -0.67209 0.51219
vn -0.44304 -0.75660 0.48090
vn -0.12145 -0.74723 0.65337
vn -0.21038 -0.72118 0.66003
vn -0.37306 -0.72766 0.57562
vn -0.45217 -0.74982 0.48302
vn -0.01731 -0.75545 0.65498
vn 0.26888 -0.51917 0.81128
vn -0.09625 -0.63680 0.76499
vn -0.12145 -0.74723 0.65337
vn 0.61160 0.62939 0.47938
vn 0.75010 -0.30409 0.58726
vn 0.61160 0.62939 0.47938
vn 0.61160 0.62939 0.47938
vn 0.80211 -0.42364 0.42090
vn 0.92586 -0.10955 0.36164
vn 0.75010 -0.30409 0.58726
vn 0.65110 -0.62055 0.43703
vn 0.95072 0.00696 -0.30998
vn 0.89312 0.01612 -0.44953
vn 0.89097 -0.16745 -0.42205
vn 0.92787 -0.01307 -0.37268
vn 0.98680 -0.06180 -0.14972
vn 0.30992 0.62548 -0.71605
vn 0.89312 0.01612 -0.44953
vn 0.95072 0.00696 -0.30998
vn -0.06204 0.26989 -0.96089
vn -0.14816 0.46175 -0.87455
vn -0.03245 0.49267 -0.86961
vn -0.16862 0.32976 -0.92888
vn -0.52222 -0.78337 -0.33709
vn -0.18818 -0.90275 -0.38683
vn -0.52259 -0.80895 -0.26926
vn -0.44068 -0.86440 -0.24211
vn -0.21804 -0.85809 -0.46491
vn -0.08415 -0.88536 -0.45722
vn -0.24234 -0.82429 -0.51168
vn -0.41277 -0.83284 -0.36878
vn -0.92411 -0.10955 0.36609
vn -0.91339 -0.27178 0.30307
vn -0.97065 0.01967 0.23970
vn -0.93045 0.15326 0.33282
vn 0.21143 0.86291 0.45900
vn -0.54826 -0.82605 0.13060
vn 0.21143 0.86291 0.45900
vn 0.21143 0.86291 0.45900
vn 0.26888 -0.51917 0.81128
vn 0.13757 -0.45112 0.88180
vn -0.02985 -0.55618 0.83053
vn -0.09625 -0.63680 0.76499
vn 0.75010 -0.30409 0.58726
vn 0.83068 -0.19054 0.52313
vn 0.35618 -0.39926 0.84482
vn 0.26888 -0.51917 0.81128
vn 0.97390 0.22318 0.04126
vn 0.95530 0.03010 0.29411
vn 0.93308 0.25758 0.25104
vn 0.90416 0.40706 0.12959
vn 0.89312 0.01612 -0.44953
vn 0.78764 0.36150 -0.49894
vn 0.85794 -0.10381 -0.50315
vn 0.89097 -0.16745 -0.42205
vn 0.59230 0.51290 -0.62138
vn 0.04429 0.71641 -0.69627
vn 0.78764 0.36150 -0.49894
vn 0.85627 0.14935 -0.49447
vn -0.14816 0.46175 -0.87455
vn -0.10441 0.53539 -0.83812
vn 0.04429 0.71641 -0.69627
vn 0.06106 0.56594 -0.82218
vn -0.42726 -0.02956 -0.90365
vn -0.37614 -0.41435 -0.82875
vn -0.16177 0.40372 -0.90047
vn -0.14816 0.46175 -0.87455
vn -0.97065 0.01967 0.23970
vn -0.97376 0.09125 0.20847
vn -0.97808 0.11613 0.17283
vn -0.99528 0.00680 0.09682
vn -0.93983 -0.10397 0.32545
vn -0.87760 0.06631 0.47478
vn -0.97376 0.09125 0.20847
vn -0.97065 0.01967 0.23970
vn -0.83652 0.11300 0.53616
vn -0.79565 0.22456 0.56260
vn -0.87760 0.06631 0.47478
vn -0.93983 -0.10397 0.32545
vn 0.13757 -0.45112 0.88180
vn -0.04979 -0.35640 0.93301
vn -0.05437 -0.38350 0.92194
vn -0.02985 -0.55618 0.83053
vn 0.83068 -0.19054 0.52313
vn 0.84801 -0.14398 0.51005
vn 0.79760 -0.23451 0.55573
vn 0.68684 -0.26484 0.67684
vn 0.91440 -0.10472 0.39103
vn 0.76947 0.63863 -0.00793
vn 0.84801 -0.14398 0.51005
vn 0.83068 -0.19054 0.52313
vn 0.37243 0.82628 -0.42257
vn 0.55940 0.78758 -0.25843
vn 0.54812 0.82381 -0.14456
vn 0.59947 0.79274 -0.11048
vn 0.04429 0.71641 -0.69627
vn 0.22885 0.74131 -0.63095
vn 0.28855 0.89207 -0.34778
vn 0.22038 0.86681 -0.44729
vn -0.10441 0.53539 -0.83812
vn -0.08199 0.70844 -0.70099
vn 0.13575 0.75141 -0.64572
vn 0.04429 0.71641 -0.69627
vn -0.15247 0.74768 -0.64632
vn -0.39326 0.84426 -0.36410
vn -0.08199 0.70844 -0.70099
vn -0.10441 0.53539 -0.83812
vn -0.97376 0.09125 0.20847
vn -0.86346 0.37020 0.34263
vn -0.91763 0.27799 0.28405
vn -0.97808 0.11613 0.17283
vn -0.69437 0.66206 -0.28199
vn -0.57625 0.73398 -0.35946
vn -0.62768 0.70800 -0.32364
vn -0.74093 0.61745 -0.26417
vn -0.79565 0.22456 0.56260
vn -0.31267 0.72271 0.61638
vn -0.53177 0.50379 0.68075
vn -0.87760 0.06631 0.47478
vn -0.34693 0.91361 0.21202
vn -0.60834 0.34971 0.71248
vn -0.26895 0.78005 0.56496
vn -0.21706 0.87821 0.42618
vn 0.90279 0.08886 0.42080
vn 0.60296 0.79140 0.10064
vn 0.79610 0.34768 0.49533
vn 0.79760 -0.23451 0.55573
vn 0.71813 0.69300 -0.06350
vn 0.54812 0.82381 -0.14456
vn 0.58340 0.80940 0.06715
vn 0.81727 0.55769 0.14511
vn 0.46168 0.86067 -0.21471
vn 0.53028 0.84338 -0.08667
vn 0.47564 0.87713 -0.06641
vn 0.54812 0.82381 -0.14456
vn 0.25979 0.77037 -0.58228
vn 0.52196 0.74135 -0.42185
vn 0.53028 0.84338 -0.08667
vn 0.46391 0.83831 -0.28640
vn -0.08199 0.70844 -0.70099
vn -0.08114 0.66486 -0.74255
vn 0.05631 0.84800 -0.52700
vn 0.13575 0.75141 -0.64572
vn -0.31584 0.78706 -0.52989
vn -0.47076 0.84965 0.23766
vn -0.03567 0.81154 -0.58321
vn -0.08199 0.70844 -0.70099
vn -0.86346 0.37020 0.34263
vn -0.72491 0.63459 0.26795
vn -0.63555 0.63010 0.44615
vn -0.91763 0.27799 0.28405
vn -0.57625 0.73398 -0.35946
vn -0.67917 0.70540 -0.20284
vn -0.64953 0.69534 -0.30759
vn -0.62768 0.70800 -0.32364
vn -0.31267 0.72271 0.61638
vn -0.12002 0.79675 0.59228
vn 0.04802 0.78332 0.61976
vn -0.37954 0.62066 0.68610
vn -0.60834 0.34971 0.71248
vn -0.76210 0.29185 0.57796
vn -0.65030 0.50524 0.56731
vn -0.31267 0.72271 0.61638
vn 0.58340 0.80940 0.06715
vn 0.39784 0.91490 -0.06842
vn 0.42266 0.90404 0.06381
vn 0.63444 0.71986 0.28157
vn 0.54812 0.82381 -0.14456
vn 0.47564 0.87713 -0.06641
vn 0.39784 0.91490 -0.06842
vn 0.53640 0.84396 0.00210
vn 0.49731 0.86755 -0.00625
vn 0.55836 0.82776 0.05518
vn 0.55026 0.83472 0.02129
vn 0.47564 0.87713 -0.06641
vn 0.33872 0.93983 -0.04463
vn 0.27419 0.94746 -0.16473
vn 0.55836 0.82776 0.05518
vn 0.49731 0.86755 -0.00625
vn -0.24098 0.96391 -0.11319
vn -0.24134 0.95451 -0.17513
vn 0.27419 0.94746 -0.16473
vn 0.24892 0.95203 -0.17797
vn -0.47076 0.84965 0.23766
vn -0.62370 0.68699 0.37289
vn -0.38738 0.92165 0.02212
vn -0.24098 0.96391 -0.11319
vn -0.66032 0.63677 0.39812
vn -0.77813 0.62090 0.09480
vn -0.62370 0.68699 0.37289
vn -0.59928 0.74159 0.30150
vn -0.67917 0.70540 -0.20284
vn -0.75690 0.64083 0.12823
vn -0.77813 0.62090 0.09480
vn -0.73074 0.68073 -0.05125
vn 0.16531 0.81048 0.56195
vn -0.75039 0.57957 0.31781
vn 0.32440 0.83861 0.43761
vn 0.04802 0.78332 0.61976
vn -0.73096 0.48695 0.47811
vn -0.63401 0.71418 0.29662
vn -0.75039 0.57957 0.31781
vn -0.76256 0.40919 0.50106
vn 0.39784 0.91490 -0.06842
vn 0.47626 0.87675 -0.06694
vn 0.39826 0.91723 0.00869
vn 0.42266 0.90404 0.06381
vn 0.47564 0.87713 -0.06641
vn 0.55026 0.83472 0.02129
vn 0.47626 0.87675 -0.06694
vn 0.39784 0.91490 -0.06842
vn 0.55026 0.83472 0.02129
vn 0.55836 0.82776 0.05518
vn 0.62744 0.77842 0.01954
vn 0.55836 0.82776 0.05518
vn 0.27419 0.94746 -0.16473
vn 0.54400 0.83756 -0.05062
vn 0.27419 0.94746 -0.16473
vn 0.07927 0.95457 -0.28725
vn 0.43603 0.89497 -0.09436
vn -0.35473 0.92765 -0.11680
vn -0.73425 0.66545 0.13437
vn -0.77056 0.60802 0.19118
vn -0.63214 0.72474 0.27414
vn -0.77813 0.62090 0.09480
vn -0.77056 0.60802 0.19118
vn -0.77813 0.62090 0.09480
vn -0.78369 0.59436 0.18047
vn -0.77056 0.60802 0.19118
vn -0.78369 0.59436 0.18047
vn -0.75039 0.57957 0.31781
vn -0.77056 0.60802 0.19118
vn -0.75039 0.57957 0.31781
vn -0.63401 0.71418 0.29662
vn -0.77056 0.60802 0.19118
vn 0.39826 0.91723 0.00869
vn 0.47626 0.87675 -0.06694
vn 0.54400 0.83756 -0.05062
vn 0.47626 0.87675 -0.06694
vn 0.55026 0.83472 0.02129
vn 0.62744 0.77842 0.01954
f 12//32 13//33 3//34 2//31 
f 14//36 12//37 2//38 4//35 
f 15//40 14//41 4//42 5//39 
f 16//44 15//45 5//46 6//43 
f 17//48 16//49 6//50 7//47 
f 18//52 17//53 7//54 8//51 
f 19//56 18//57 8//58 9//55 
f 20//60 19//61 9//62 10//59 
f 21//64 20//65 10//66 11//63 
f 13//68 21//69 11//70 3//67 
f 22//72 23//73 13//74 12//71 
f 24//76 22//77 12//78 14//75 
f 25//80 24//81 14//82 15//79 
f 26//84 25//85 15//86 16//83 
f 27//88 26//89 16//90 17//87 
f 28//92 27//93 17//94 18//91 
f 29//96 28//97 18//98 19//95 
f 30//100 29//101 19//102 20//99 
f 31//104 30//105 20//106 21//103 
f 23//108 31//109 21//110 13//107 
f 32//112 33//113 23//114 22//111 
f 34//116 32//117 22//118 24//115 
f 35//120 34//121 24//122 25//119 
f 36//124 35//125 25//126 26//123 
f 37//128 36//129 26//130 27//127 
f 38//132 37//133 27//134 28//131 
f 39//136 38//137 28//138 29//135 
f 40//140 39//141 29//142 30//139 
f 41//144 40//145 30//146 31//143 
f 33//148 41//149 31//150 23//147 
f 42//152 43//153 33//154 32//151 
f 44//156 42//157 32//158 34//155 
f 45//160 44//161 34//162 35//159 
f 46//164 45//165 35//166 36//163 
f 47//168 46//169 36//170 37//167 
f 48//172 47//173 37//174 38//171 
f 49//176 48//177 38//178 39//175 
f 50//180 49//181 39//182 40//179 
f 51//184 50//185 40//186 41//183 
f 43//188 51//189 41//190 33//187 
f 52//192 53//193 43//194 42//191 
f 54//196 52//197 42//198 44//195 
f 55//200 54//201 44//202 45//199 
f 56//204 55//205 45//206 46//203 
f 57//208 56//209 46//210 47//207 
f 58//212 57//213 47//214 48//211 
f 59//216 58//217 48//218 49//215 
f 60//220 59//221 49//222 50//219 
f 61//224 60//225 50//226 51//223 
f 53//228 61//229 51//230 43//227 
f 62//232 63//233 53//234 52//231 
f 64//236 62//237 52//238 54//235 
f 65//240 64//241 54//242 55//239 
f 66//244 65//245 55//246 56//243 
f 67//248 66//249 56//250 57//247 
f 68//252 67//253 57//254 58//251 
f 69//256 68//257 58//258 59//255 
f 70//260 69//261 59//262 60//259 
f 71//264 70//265 60//266 61//263 
f 63//268 71//269 61//270 53//267 
f 72//272 73//273 63//274 62//271 
f 74//276 72//277 62//278 64//275 
f 75//280 74//281 64//282 65//279 
f 76//284 75//285 65//286 66//283 
f 77//288 76//289 66//290 67//287 
f 78//292 77//293 67//294 68//291 
f 79//296 78//297 68//298 69//295 
f 80//300 79//301 69//302 70//299 
f 81//304 80//305 70//306 71//303 
f 73//308 81//309 71//310 63//307 
f 82//312 83//313 73//314 72//311 
f 84//316 82//317 72//318 74//315 
f 85//320 84//321 74//322 75//319 
f 86//324 85//325 75//326 76//323 
f 87//328 86//329 76//330 77//327 
f 88//332 87//333 77//334 78//331 
f 89//336 88//337 78//338 79//335 
f 90//340 89//341 79//342 80//339 
f 91//344 90//345 80//346 81//343 
f 83//348 91//349 81//350 73//347 
f 1//1 2//2 3//3 
f 1//4 4//5 2//6 
f 1//7 5//8 4//9 
f 1//10 6//11 5//12 
f 1//13 7//14 6//15 
f 1//16 8//17 7//18 
f 1//19 9//20 8//21 
f 1//22 10//23 9//24 
f 1//25 11//26 10//27 
f 1//28 3//29 11//30 
f 83//351 82//352 92//353 
f 82//354 84//355 92//356 
f 84//357 85//358 92//359 
f 85//360 86//361 92//362 
f 86//363 87//364 92//365 
f 87//366 88//367 92//368 
f 88//369 89//370 92//371 
f 89//372 90//373 92//374 
f 90//375 91//376 92//377 
f 91//378 83//379 92//380 
