# Vectary OBJ Export units=mm
mtllib Asteroid1.mtl
o 000_Sphere_-_baked
g Sphere_-_baked
usemtl Material_7c5ede22-71ec-49cd-8c3d-476150ae596c
v 15.498 -60.222 8.570
v 21.452 -63.182 -22.503
v 34.173 -65.942 -12.950
v 2.953 -58.337 -18.562
v -8.874 -50.396 -11.336
v -9.481 -44.435 -13.568
v -4.002 -40.832 -6.945
v -12.225 -44.654 12.493
v -14.584 -51.387 30.831
v -2.794 -57.027 23.605
v 18.613 -63.513 3.558
v 25.121 -56.383 -38.617
v 48.217 -61.575 -11.511
v 7.652 -44.764 -43.939
v -15.363 -34.954 -37.578
v -34.318 -39.802 -43.713
v -23.422 -47.010 -16.567
v -41.006 -43.778 5.857
v -14.688 -43.142 42.628
v 8.646 -46.218 36.268
v 18.802 -51.044 10.953
v 37.739 -39.565 -44.793
v 54.994 -43.337 -2.635
v 28.675 -28.683 -62.397
v -2.734 -33.476 -62.832
v -43.564 -28.026 -33.559
v -41.842 -48.287 10.932
v -40.216 -32.381 34.669
v 3.916 -34.383 47.563
v 35.415 -39.090 47.998
v 46.422 -28.504 23.435
v 33.104 -17.142 -47.903
v 59.644 -19.894 5.834
v 28.019 -18.189 -76.384
v -3.604 -30.956 -75.505
v -51.841 -16.564 -26.744
v -55.853 -39.439 12.301
v -35.108 -18.155 53.463
v -15.412 -23.269 54.272
v 15.488 -25.078 53.393
v 51.031 -10.919 32.304
v 32.383 2.714 -47.959
v 59.817 -1.152 1.176
v 13.051 -5.720 -70.074
v -19.715 -18.982 -73.930
v -66.476 -3.638 -48.195
v -62.063 -27.401 -7.622
v -50.107 -4.353 36.139
v -32.282 -11.063 62.525
v 7.279 -6.973 66.382
v 43.036 4.686 36.375
v 29.561 17.438 -46.296
v 57.745 10.127 -12.085
v 6.837 11.291 -56.106
v -29.948 -2.216 -63.112
v -67.042 9.915 -54.052
v -61.646 -14.979 -14.616
v -56.296 10.634 26.154
v -26.633 -1.598 66.664
v 17.996 12.862 73.671
v 49.856 19.941 33.911
v 31.141 25.680 -27.931
v 48.029 18.275 -5.296
v 1.080 28.315 -43.546
v -32.874 20.421 -50.094
v -59.058 22.917 -33.326
v -55.874 -2.443 -2.278
v -43.745 25.805 34.902
v -12.522 5.193 60.301
v 19.903 33.484 66.849
v 40.073 27.993 40.296
v 22.890 33.846 -13.178
v 26.118 30.037 8.657
v 3.619 43.764 -23.504
v -26.317 40.912 -34.254
v -45.918 30.592 -19.216
v -40.984 12.416 8.564
v -29.220 34.954 30.355
v -12.233 19.569 45.952
v 6.485 42.769 56.702
v 22.293 36.760 36.392
v 3.859 42.518 0.267
v 5.488 39.255 12.322
v -3.073 47.130 -8.630
v -15.807 45.298 -17.119
v -25.325 38.806 -14.766
v -23.422 34.702 -1.839
v -16.275 41.234 11.295
v -9.477 42.189 25.048
v -1.726 44.865 33.537
v 3.911 42.521 26.327
v -10.119 53.405 5.381
vn -0.40492 -0.90943 -0.09469
vn -0.15896 -0.97140 -0.17636
vn -0.24432 -0.96863 0.04548
vn -0.40492 -0.90943 -0.09469
vn -0.37028 -0.91057 -0.18370
vn -0.15896 -0.97140 -0.17636
vn -0.40492 -0.90943 -0.09469
vn -0.48191 -0.86986 -0.10538
vn -0.35978 -0.93003 -0.07484
vn -0.65011 0.03568 0.75900
vn -0.69391 0.02487 0.71963
vn -0.55343 0.24192 0.79699
vn -0.65011 0.03568 0.75900
vn -0.74500 -0.08362 0.66181
vn -0.79040 0.01588 0.61239
vn -0.45739 -0.86784 -0.19404
vn -0.32377 -0.87255 -0.36583
vn -0.49462 -0.78903 -0.36439
vn -0.45739 -0.86784 -0.19404
vn -0.37672 -0.79128 -0.48163
vn -0.32377 -0.87255 -0.36583
vn -0.54651 -0.69623 -0.46539
vn -0.61306 -0.44811 -0.65066
vn -0.56900 -0.64167 -0.51430
vn -0.54549 0.50380 -0.66979
vn -0.54549 0.50380 -0.66979
vn -0.44503 0.59631 -0.66811
vn -0.54549 0.50380 -0.66979
vn -0.63637 0.40115 -0.65887
vn -0.54549 0.50380 -0.66979
vn 0.06004 -0.87597 -0.47862
vn 0.05491 -0.89285 -0.44699
vn 0.24691 -0.84297 -0.47796
vn 0.29249 -0.74156 -0.60377
vn -0.44082 -0.86445 -0.24166
vn -0.37633 -0.73151 -0.56857
vn -0.16821 -0.88394 -0.43629
vn -0.07020 -0.95955 -0.27264
vn -0.56591 -0.71508 -0.41038
vn -0.44685 -0.64948 -0.61523
vn -0.49127 -0.67936 -0.54509
vn -0.46010 -0.75796 -0.46240
vn -0.84531 -0.06083 0.53080
vn 0.35325 -0.89971 -0.25639
vn -0.97227 -0.01167 0.23358
vn -0.97227 -0.01167 0.23358
vn -0.74500 -0.08362 0.66181
vn 0.39431 -0.89140 -0.22346
vn -0.77150 0.00373 0.63621
vn -0.79040 0.01588 0.61239
vn 0.11009 -0.98915 -0.09730
vn -0.16204 -0.98615 0.03548
vn 0.25064 -0.96098 -0.11699
vn 0.39431 -0.89140 -0.22346
vn -0.23073 -0.90341 -0.36139
vn -0.38345 -0.79483 0.47033
vn -0.00244 -0.99271 -0.12054
vn -0.14194 -0.96611 -0.21562
vn 0.08293 -0.81846 0.56855
vn 0.09080 -0.81457 0.57291
vn -0.19934 -0.79423 0.57399
vn -0.34263 -0.77146 0.53615
vn 0.44846 -0.65146 0.61194
vn 0.77405 -0.33162 0.53933
vn 0.09080 -0.81457 0.57291
vn 0.08293 -0.81846 0.56855
vn 0.42517 -0.61973 0.65967
vn 0.39089 -0.68341 0.61657
vn 0.52698 -0.57304 0.62763
vn 0.62535 -0.53821 0.56504
vn 0.76366 0.03005 -0.64491
vn 0.65757 -0.57270 -0.48951
vn 0.85488 -0.00797 -0.51877
vn 0.76366 0.03005 -0.64491
vn -0.08251 -0.57116 -0.81668
vn 0.14136 -0.90739 -0.39581
vn 0.08588 -0.62458 -0.77622
vn 0.03740 -0.36905 -0.92866
vn -0.44685 -0.64948 -0.61523
vn 0.12691 -0.98886 -0.07783
vn -0.13985 -0.64441 -0.75178
vn -0.40378 -0.64532 -0.64848
vn 0.35325 -0.89971 -0.25639
vn -0.64689 0.07598 -0.75879
vn 0.12691 -0.98886 -0.07783
vn 0.24965 -0.96152 -0.11473
vn -0.62366 -0.77193 -0.12314
vn -0.62418 -0.69829 -0.35042
vn -0.60618 -0.77914 -0.15962
vn -0.73088 -0.67279 0.11473
vn 0.73593 0.44133 0.51345
vn 0.98849 -0.14801 0.03145
vn 0.73593 0.44133 0.51345
vn 0.73593 0.44133 0.51345
vn -0.27515 -0.80992 0.51800
vn -0.27800 0.05003 0.95928
vn -0.42560 -0.73500 0.52787
vn -0.38852 -0.86794 0.30940
vn 0.09080 -0.81457 0.57291
vn -0.01582 -0.71891 0.69492
vn -0.11106 -0.71162 0.69373
vn 0.04546 -0.76180 0.64621
vn 0.33224 -0.85870 0.39019
vn 0.72448 -0.60222 0.33534
vn 0.16695 -0.87225 0.45968
vn 0.09080 -0.81457 0.57291
vn 0.39089 -0.68341 0.61657
vn 0.77297 -0.42515 0.47093
vn 0.58450 -0.54645 0.59980
vn 0.32238 -0.75440 0.57179
vn 0.90528 -0.11610 -0.40865
vn 0.93521 0.00713 -0.35403
vn 0.90622 -0.01329 -0.42260
vn 0.84281 -0.23742 -0.48301
vn 0.95945 -0.01471 -0.28150
vn 0.98281 -0.06410 -0.17313
vn 0.93521 0.00713 -0.35403
vn 0.91269 0.07160 -0.40232
vn 0.08344 -0.93627 -0.34123
vn 0.05747 -0.97840 -0.19855
vn 0.25416 -0.87553 -0.41091
vn -0.04732 -0.71515 -0.69737
vn -0.50453 -0.85147 -0.14300
vn -0.73674 -0.47957 -0.47669
vn -0.16844 -0.94871 -0.26753
vn 0.13059 -0.97373 -0.18655
vn -0.62418 -0.69829 -0.35042
vn -0.20444 -0.83789 -0.50611
vn -0.65412 -0.63390 -0.41267
vn -0.75755 -0.58017 -0.29919
vn -0.42560 -0.73500 0.52787
vn -0.48622 -0.64290 0.59184
vn -0.50316 -0.65858 0.55956
vn -0.41699 -0.74159 0.52551
vn -0.11106 -0.71162 0.69373
vn -0.19240 -0.68687 0.70085
vn -0.34636 -0.70357 0.62050
vn -0.42560 -0.73500 0.52787
vn -0.01582 -0.71891 0.69492
vn 0.24031 -0.48323 0.84187
vn -0.08651 -0.59604 0.79828
vn -0.11106 -0.71162 0.69373
vn 0.57960 0.62116 0.52747
vn 0.70631 -0.29819 0.64203
vn 0.57960 0.62116 0.52747
vn 0.57960 0.62116 0.52747
vn 0.77297 -0.42515 0.47093
vn 0.90504 -0.11152 0.41044
vn 0.70631 -0.29819 0.64203
vn 0.62107 -0.61644 0.48401
vn 0.93521 0.00713 -0.35403
vn 0.86327 0.01622 -0.50449
vn 0.86361 -0.16903 -0.47497
vn 0.90622 -0.01329 -0.42260
vn 0.98281 -0.06410 -0.17313
vn 0.28157 0.59180 -0.75531
vn 0.86327 0.01622 -0.50449
vn 0.93521 0.00713 -0.35403
vn -0.05384 0.24395 -0.96829
vn -0.13074 0.42433 -0.89602
vn -0.02864 0.45284 -0.89113
vn -0.14736 0.30010 -0.94246
vn -0.49987 -0.78089 -0.37463
vn -0.17773 -0.88795 -0.42421
vn -0.50273 -0.81044 -0.30075
vn -0.42335 -0.86478 -0.27005
vn -0.20444 -0.83789 -0.50611
vn -0.07885 -0.86392 -0.49741
vn -0.22612 -0.80098 -0.55434
vn -0.39249 -0.82473 -0.40714
vn -0.90284 -0.11146 0.41527
vn -0.89642 -0.27778 0.34535
vn -0.96107 0.02029 0.27556
vn -0.91215 0.15647 0.37882
vn 0.19834 0.84304 0.49994
vn -0.53161 -0.83413 0.14702
vn 0.19834 0.84304 0.49994
vn 0.19834 0.84304 0.49994
vn 0.24031 -0.48323 0.84187
vn 0.12123 -0.41398 0.90218
vn -0.02653 -0.51473 0.85694
vn -0.08651 -0.59604 0.79828
vn 0.70631 -0.29819 0.64203
vn 0.79263 -0.18934 0.57956
vn 0.31707 -0.37014 0.87319
vn 0.24031 -0.48323 0.84187
vn 0.97157 0.23187 0.04779
vn 0.94120 0.03089 0.33644
vn 0.92049 0.26463 0.28753
vn 0.89532 0.41978 0.14898
vn 0.86327 0.01622 -0.50449
vn 0.75178 0.35932 -0.55292
vn 0.82213 -0.10360 -0.55980
vn 0.86361 -0.16903 -0.47497
vn 0.55074 0.49666 -0.67084
vn 0.04023 0.67766 -0.73427
vn 0.75178 0.35932 -0.55292
vn 0.82129 0.14918 -0.55066
vn -0.13074 0.42433 -0.89602
vn -0.09269 0.49501 -0.86393
vn 0.04023 0.67766 -0.73427
vn 0.05435 0.52457 -0.84963
vn -0.37701 -0.02717 -0.92581
vn -0.33595 -0.38540 -0.85942
vn -0.14210 0.36932 -0.91837
vn -0.13074 0.42433 -0.89602
vn -0.96107 0.02029 0.27556
vn -0.96614 0.09429 0.24016
vn -0.97249 0.12025 0.19951
vn -0.99366 0.00707 0.11223
vn -0.92256 -0.10628 0.37092
vn -0.84493 0.06648 0.53073
vn -0.96614 0.09429 0.24016
vn -0.96107 0.02029 0.27556
vn -0.79718 0.11215 0.59324
vn -0.75370 0.22152 0.61877
vn -0.84493 0.06648 0.53073
vn -0.92256 -0.10628 0.37092
vn 0.12123 -0.41398 0.90218
vn -0.04344 -0.32382 0.94512
vn -0.04754 -0.34917 0.93585
vn -0.02653 -0.51473 0.85694
vn 0.79263 -0.18934 0.57956
vn 0.81139 -0.14347 0.56662
vn 0.75632 -0.23159 0.61184
vn 0.63624 -0.25549 0.72796
vn 0.89061 -0.10622 0.44220
vn 0.75654 0.65389 -0.00906
vn 0.81139 -0.14347 0.56662
vn 0.79263 -0.18934 0.57956
vn 0.35193 0.81314 -0.46362
vn 0.53936 0.79082 -0.28930
vn 0.53122 0.83147 -0.16267
vn 0.58298 0.80285 -0.12474
vn 0.04023 0.67766 -0.73427
vn 0.21022 0.70918 -0.67295
vn 0.27396 0.88203 -0.38337
vn 0.20703 0.84801 -0.48787
vn -0.09269 0.49501 -0.86393
vn -0.07443 0.66975 -0.73885
vn 0.12430 0.71649 -0.68644
vn 0.04023 0.67766 -0.73427
vn -0.13961 0.71298 -0.68714
vn -0.37388 0.83588 -0.40190
vn -0.07443 0.66975 -0.73885
vn -0.09269 0.49501 -0.86393
vn -0.96614 0.09429 0.24016
vn -0.84167 0.37580 0.38777
vn -0.90215 0.28461 0.32423
vn -0.97249 0.12025 0.19951
vn -0.67294 0.66819 -0.31729
vn -0.55181 0.73197 -0.39965
vn -0.60432 0.70987 -0.36178
vn -0.72084 0.62558 -0.29840
vn -0.75370 0.22152 0.61877
vn -0.28828 0.69393 0.65982
vn -0.48896 0.48243 0.72676
vn -0.84493 0.06648 0.53073
vn -0.33287 0.91291 0.23620
vn -0.55837 0.33427 0.75927
vn -0.24945 0.75343 0.60837
vn -0.20433 0.86097 0.46581
vn 0.87592 0.08978 0.47402
vn 0.58662 0.80184 0.11368
vn 0.76057 0.34592 0.54944
vn 0.75632 -0.23159 0.61184
vn 0.70351 0.70700 -0.07222
vn 0.53122 0.83147 -0.16267
vn 0.56747 0.81990 0.07583
vn 0.80386 0.57126 0.16572
vn 0.44453 0.86301 -0.24002
vn 0.51439 0.85198 -0.09761
vn 0.46056 0.88449 -0.07466
vn 0.53122 0.83147 -0.16267
vn 0.24036 0.74228 -0.62550
vn 0.49578 0.73333 -0.46522
vn 0.51439 0.85198 -0.09761
vn 0.44476 0.83699 -0.31880
vn -0.07443 0.66975 -0.73885
vn -0.07318 0.62450 -0.77759
vn 0.05234 0.82086 -0.56873
vn 0.12430 0.71649 -0.68644
vn -0.29451 0.76430 -0.57368
vn -0.45285 0.85116 0.26543
vn -0.03292 0.77999 -0.62493
vn -0.07443 0.66975 -0.73885
vn -0.84167 0.37580 0.38777
vn -0.70442 0.64219 0.30231
vn -0.60519 0.62485 0.49326
vn -0.90215 0.28461 0.32423
vn -0.55181 0.73197 -0.39965
vn -0.66079 0.71474 -0.22914
vn -0.62682 0.69881 -0.34463
vn -0.60432 0.70987 -0.36178
vn -0.28828 0.69393 0.65982
vn -0.11068 0.76521 0.63419
vn 0.04410 0.74920 0.66087
vn -0.34699 0.59093 0.72828
vn -0.55837 0.33427 0.75927
vn -0.71900 0.28675 0.63310
vn -0.61078 0.49419 0.61865
vn -0.28828 0.69393 0.65982
vn 0.56747 0.81990 0.07583
vn 0.38418 0.92007 -0.07671
vn 0.40851 0.90994 0.07161
vn 0.61294 0.72426 0.31583
vn 0.53122 0.83147 -0.16267
vn 0.46056 0.88449 -0.07466
vn 0.38418 0.92007 -0.07671
vn 0.52094 0.85359 0.00237
vn 0.48220 0.87603 -0.00703
vn 0.54259 0.83769 0.06226
vn 0.53470 0.84470 0.02402
vn 0.46056 0.88449 -0.07466
vn 0.32663 0.94383 -0.04997
vn 0.26319 0.94712 -0.18359
vn 0.54259 0.83769 0.06226
vn 0.48220 0.87603 -0.00703
vn -0.23156 0.96459 -0.12628
vn -0.23141 0.95312 -0.19497
vn 0.26319 0.94712 -0.18359
vn 0.23868 0.95067 -0.19813
vn -0.45285 0.85116 0.26543
vn -0.59786 0.68580 0.41501
vn -0.37415 0.92704 0.02481
vn -0.23156 0.96459 -0.12628
vn -0.63264 0.63533 0.44285
vn -0.76460 0.63537 0.10816
vn -0.59786 0.68580 0.41501
vn -0.57716 0.74379 0.33714
vn -0.66079 0.71474 -0.22914
vn -0.74204 0.65427 0.14596
vn -0.76460 0.63537 0.10816
vn -0.71652 0.69513 -0.05834
vn 0.15313 0.78185 0.60438
vn -0.72763 0.58526 0.35780
vn 0.30570 0.82299 0.47880
vn 0.04410 0.74920 0.66087
vn -0.69707 0.48360 0.52937
vn -0.61185 0.71776 0.33236
vn -0.72763 0.58526 0.35780
vn -0.72656 0.40602 0.55430
vn 0.38418 0.92007 -0.07671
vn 0.46116 0.88412 -0.07526
vn 0.38481 0.92295 0.00975
vn 0.40851 0.90994 0.07161
vn 0.46056 0.88449 -0.07466
vn 0.53470 0.84470 0.02402
vn 0.46116 0.88412 -0.07526
vn 0.38418 0.92007 -0.07671
vn 0.53470 0.84470 0.02402
vn 0.54259 0.83769 0.06226
vn 0.61192 0.79061 0.02212
vn 0.54259 0.83769 0.06226
vn 0.26319 0.94712 -0.18359
vn 0.52833 0.84712 -0.05708
vn 0.26319 0.94712 -0.18359
vn 0.07539 0.94537 -0.31716
vn 0.42137 0.90069 -0.10588
vn -0.34173 0.93067 -0.13064
vn -0.71870 0.67834 0.15270
vn -0.75416 0.61972 0.21724
vn -0.61095 0.72946 0.30762
vn -0.76460 0.63537 0.10816
vn -0.75416 0.61972 0.21724
vn -0.76460 0.63537 0.10816
vn -0.76803 0.60660 0.20535
vn -0.75416 0.61972 0.21724
vn -0.76803 0.60660 0.20535
vn -0.72763 0.58526 0.35780
vn -0.75416 0.61972 0.21724
vn -0.72763 0.58526 0.35780
vn -0.61185 0.71776 0.33236
vn -0.75416 0.61972 0.21724
vn 0.38481 0.92295 0.00975
vn 0.46116 0.88412 -0.07526
vn 0.52833 0.84712 -0.05708
vn 0.46116 0.88412 -0.07526
vn 0.53470 0.84470 0.02402
vn 0.61192 0.79061 0.02212
f 12//32 13//33 3//34 2//31 
f 14//36 12//37 2//38 4//35 
f 15//40 14//41 4//42 5//39 
f 16//44 15//45 5//46 6//43 
f 17//48 16//49 6//50 7//47 
f 18//52 17//53 7//54 8//51 
f 19//56 18//57 8//58 9//55 
f 20//60 19//61 9//62 10//59 
f 21//64 20//65 10//66 11//63 
f 13//68 21//69 11//70 3//67 
f 22//72 23//73 13//74 12//71 
f 24//76 22//77 12//78 14//75 
f 25//80 24//81 14//82 15//79 
f 26//84 25//85 15//86 16//83 
f 27//88 26//89 16//90 17//87 
f 28//92 27//93 17//94 18//91 
f 29//96 28//97 18//98 19//95 
f 30//100 29//101 19//102 20//99 
f 31//104 30//105 20//106 21//103 
f 23//108 31//109 21//110 13//107 
f 32//112 33//113 23//114 22//111 
f 34//116 32//117 22//118 24//115 
f 35//120 34//121 24//122 25//119 
f 36//124 35//125 25//126 26//123 
f 37//128 36//129 26//130 27//127 
f 38//132 37//133 27//134 28//131 
f 39//136 38//137 28//138 29//135 
f 40//140 39//141 29//142 30//139 
f 41//144 40//145 30//146 31//143 
f 33//148 41//149 31//150 23//147 
f 42//152 43//153 33//154 32//151 
f 44//156 42//157 32//158 34//155 
f 45//160 44//161 34//162 35//159 
f 46//164 45//165 35//166 36//163 
f 47//168 46//169 36//170 37//167 
f 48//172 47//173 37//174 38//171 
f 49//176 48//177 38//178 39//175 
f 50//180 49//181 39//182 40//179 
f 51//184 50//185 40//186 41//183 
f 43//188 51//189 41//190 33//187 
f 52//192 53//193 43//194 42//191 
f 54//196 52//197 42//198 44//195 
f 55//200 54//201 44//202 45//199 
f 56//204 55//205 45//206 46//203 
f 57//208 56//209 46//210 47//207 
f 58//212 57//213 47//214 48//211 
f 59//216 58//217 48//218 49//215 
f 60//220 59//221 49//222 50//219 
f 61//224 60//225 50//226 51//223 
f 53//228 61//229 51//230 43//227 
f 62//232 63//233 53//234 52//231 
f 64//236 62//237 52//238 54//235 
f 65//240 64//241 54//242 55//239 
f 66//244 65//245 55//246 56//243 
f 67//248 66//249 56//250 57//247 
f 68//252 67//253 57//254 58//251 
f 69//256 68//257 58//258 59//255 
f 70//260 69//261 59//262 60//259 
f 71//264 70//265 60//266 61//263 
f 63//268 71//269 61//270 53//267 
f 72//272 73//273 63//274 62//271 
f 74//276 72//277 62//278 64//275 
f 75//280 74//281 64//282 65//279 
f 76//284 75//285 65//286 66//283 
f 77//288 76//289 66//290 67//287 
f 78//292 77//293 67//294 68//291 
f 79//296 78//297 68//298 69//295 
f 80//300 79//301 69//302 70//299 
f 81//304 80//305 70//306 71//303 
f 73//308 81//309 71//310 63//307 
f 82//312 83//313 73//314 72//311 
f 84//316 82//317 72//318 74//315 
f 85//320 84//321 74//322 75//319 
f 86//324 85//325 75//326 76//323 
f 87//328 86//329 76//330 77//327 
f 88//332 87//333 77//334 78//331 
f 89//336 88//337 78//338 79//335 
f 90//340 89//341 79//342 80//339 
f 91//344 90//345 80//346 81//343 
f 83//348 91//349 81//350 73//347 
f 1//1 2//2 3//3 
f 1//4 4//5 2//6 
f 1//7 5//8 4//9 
f 1//10 6//11 5//12 
f 1//13 7//14 6//15 
f 1//16 8//17 7//18 
f 1//19 9//20 8//21 
f 1//22 10//23 9//24 
f 1//25 11//26 10//27 
f 1//28 3//29 11//30 
f 83//351 82//352 92//353 
f 82//354 84//355 92//356 
f 84//357 85//358 92//359 
f 85//360 86//361 92//362 
f 86//363 87//364 92//365 
f 87//366 88//367 92//368 
f 88//369 89//370 92//371 
f 89//372 90//373 92//374 
f 90//375 91//376 92//377 
f 91//378 83//379 92//380 
